<svg xmlns="http://www.w3.org/2000/svg" xmlns:svg="http://www.w3.org/2000/svg" style="overflow:visible" id="svg2008" width="65.381" height="80.425" enable-background="new 44 334 523 123" overflow="visible" version="1.1" viewBox="44 334 65.381 80.425" xml:space="preserve"><metadata id="metadata27"/><path style="fill:#999b9e" id="path18" d="m 44,370.704 h 16.107 v 16.437 H 44 v -16.437 z"/><path style="fill:#ed008c" id="path20" d="m 82.683,337.895 h 1.911 c 12.343,0 18.096,6.603 20.5,24.212 l 3.822,-0.169 L 108.406,334 H 45.598 l -0.619,27.938 3.678,0.169 c 0.637,-6.603 1.401,-10.159 3.059,-13.715 2.931,-6.604 9.048,-10.497 16.566,-10.497 h 2.676 v 60.784 c 0,6.434 -0.382,8.466 -1.91,9.99 -1.275,1.185 -3.824,1.693 -6.756,1.693 h -2.931 v 4.063 H 94.28 v -4.063 h -2.949 c -2.913,0 -5.48,-0.509 -6.736,-1.693 -1.529,-1.524 -1.911,-3.557 -1.911,-9.99 v -60.784"/><path style="fill:#999b9e" id="path22" d="m 93.274,370.704 h 16.107 v 16.437 H 93.274 v -16.437 z"/></svg>